HIERARCHY
ROOT Hips
{
	OFFSET -0.001795 -0.223333 0.028219
	CHANNELS 6 Xposition Yposition Zposition Zrotation Yrotation Xrotation 
	JOINT LeftUpLeg
	{
		OFFSET 0.069520 -0.091406 -0.006815
		CHANNELS 3 Zrotation Yrotation Xrotation
		JOINT LeftLeg
		{
			OFFSET 0.034277 -0.375199 -0.004496
			CHANNELS 3 Zrotation Yrotation Xrotation
			JOINT LeftFoot
			{
				OFFSET -0.013596 -0.397961 -0.043693
				CHANNELS 3 Zrotation Yrotation Xrotation
				JOINT LeftToe
				{
					OFFSET 0.026358 -0.055791 0.119288
					CHANNELS 3 Zrotation Yrotation Xrotation
					End Site
					{
						OFFSET 0.000000 0.000000 0.000000
					}
				}
			}
		}
	}
	JOINT RightUpLeg
	{
		OFFSET -0.067670 -0.090522 -0.004320
		CHANNELS 3 Zrotation Yrotation Xrotation
		JOINT RightLeg
		{
			OFFSET -0.038290 -0.382569 -0.008850
			CHANNELS 3 Zrotation Yrotation Xrotation
			JOINT RightFoot
			{
				OFFSET 0.015774 -0.398415 -0.042312
				CHANNELS 3 Zrotation Yrotation Xrotation
				JOINT RightToe
				{
					OFFSET -0.025372 -0.048144 0.123348
					CHANNELS 3 Zrotation Yrotation Xrotation
					End Site
					{
						OFFSET 0.000000 0.000000 0.000000
					}
				}
			}
		}
	}
	JOINT Spine
	{
		OFFSET -0.002533 0.108963 -0.026696
		CHANNELS 3 Zrotation Yrotation Xrotation
		JOINT Spine1
		{
			OFFSET 0.005487 0.135180 0.001092
			CHANNELS 3 Zrotation Yrotation Xrotation
			JOINT Spine2
			{
				OFFSET 0.001457 0.052922 0.025425
				CHANNELS 3 Zrotation Yrotation Xrotation
				JOINT Neck
				{
					OFFSET -0.002778 0.213870 -0.042857
					CHANNELS 3 Zrotation Yrotation Xrotation
					JOINT Head
					{
						OFFSET 0.005152 0.064970 0.051349
						CHANNELS 3 Zrotation Yrotation Xrotation
						End Site
						{
							OFFSET 0.000000 0.000000 0.000000
						}
					}
				}
				JOINT LeftShoulder
				{
					OFFSET 0.078845 0.121749 -0.034090
					CHANNELS 3 Zrotation Yrotation Xrotation
					JOINT LeftArm
					{
						OFFSET 0.090977 0.030469 -0.008868
						CHANNELS 3 Zrotation Yrotation Xrotation
						JOINT LeftForeArm
						{
							OFFSET 0.259612 -0.012772 -0.027456
							CHANNELS 3 Zrotation Yrotation Xrotation
							JOINT LeftHand
							{
								OFFSET 0.249234 0.008986 -0.001171
								CHANNELS 3 Zrotation Yrotation Xrotation
								End Site
								{
									OFFSET 0.000000 0.000000 0.000000
								}
							}
						}
					}
				}
				JOINT RightShoulder
				{
					OFFSET -0.081759 0.118833 -0.038615
					CHANNELS 3 Zrotation Yrotation Xrotation
					JOINT RightArm
					{
						OFFSET -0.096012 0.032551 -0.009143
						CHANNELS 3 Zrotation Yrotation Xrotation
						JOINT RightForeArm
						{
							OFFSET -0.253742 -0.013329 -0.021401
							CHANNELS 3 Zrotation Yrotation Xrotation
							JOINT RightHand
							{
								OFFSET -0.255298 0.007772 -0.005559
								CHANNELS 3 Zrotation Yrotation Xrotation
								End Site
								{
									OFFSET 0.000000 0.000000 0.000000
								}
							}
						}
					}
				}
			}
		}
	}
}
MOTION
Frames: 7
Frame Time: 0.050000
-0.117498 0.928576 -0.347735 -2.220558 8.765227 0.021969 1.469156 -0.142904 -1.400936 -0.468682 -0.124105 4.505192 5.583563 9.660398 -4.524473 0.000000 0.000000 0.000000 -1.836973 1.383226 -19.161846 3.806772 -0.715037 16.787132 -12.126948 -27.191210 7.939122 0.000000 0.000000 0.000000 -2.870059 -0.335579 13.059942 0.684024 -0.344386 0.200767 3.538091 -3.615189 12.311052 1.702721 0.692319 -24.159518 0.000000 0.000000 0.000000 8.858709 -12.911344 3.925554 -63.495556 -40.416944 15.375942 57.162698 -53.607296 -26.970265 0.000000 0.000000 0.000000 -9.930472 20.465843 5.750924 57.658923 39.630320 14.265700 -18.999305 42.382851 -5.263943 0.000000 0.000000 0.000000 
-0.125887 0.926082 -0.335587 -1.617246 9.240575 0.233106 1.168428 -0.066533 -0.438945 -0.327508 -0.163407 4.941703 6.186490 10.455841 -5.725873 0.000000 0.000000 0.000000 -1.748490 1.257394 -16.910930 3.561092 -0.590228 13.736430 -12.723341 -28.096450 9.000473 0.000000 0.000000 0.000000 -2.890975 -0.265727 11.190133 0.872691 -0.449514 0.384628 3.399938 -4.380149 12.159978 1.922975 0.464262 -23.664237 0.000000 0.000000 0.000000 8.336415 -13.497011 4.078785 -63.499733 -41.182079 16.039483 60.072493 -54.374559 -28.995995 0.000000 0.000000 0.000000 -9.724296 20.967509 5.934898 56.379970 40.486012 14.187440 -18.001581 41.775696 -4.886615 0.000000 0.000000 0.000000 
-0.134804 0.923594 -0.320110 -1.371492 8.607324 0.296526 0.895464 0.032394 0.764193 0.303450 -0.275942 5.532932 6.748109 11.712916 -5.881423 0.000000 0.000000 0.000000 -1.153589 1.270657 -15.562627 3.271945 -0.482965 13.068121 -12.573614 -28.043492 8.363455 0.000000 0.000000 0.000000 -2.426008 -0.231287 9.244237 0.886542 -0.427699 -0.024021 3.170327 -4.861377 12.796102 2.018411 0.268462 -23.179311 0.000000 0.000000 0.000000 7.014123 -12.714678 3.911470 -63.890242 -40.007396 15.522524 60.234479 -57.465771 -30.709246 0.000000 0.000000 0.000000 -9.319343 20.582884 5.907076 55.997786 41.014977 14.108164 -16.176822 42.953212 -4.411651 0.000000 0.000000 0.000000 
-0.144645 0.921947 -0.303514 -1.309335 8.984337 0.309018 1.243925 0.007626 0.609416 0.415481 -0.404924 7.612245 6.920445 11.894476 -6.320639 0.000000 0.000000 0.000000 -0.736195 1.211180 -14.062411 3.137862 -0.443876 11.827434 -12.825918 -28.464553 8.701645 0.000000 0.000000 0.000000 -2.240343 -0.192765 7.660364 1.270755 -0.649728 0.471948 3.090321 -5.567224 12.517964 2.172714 0.126669 -23.272243 0.000000 0.000000 0.000000 6.506158 -12.528121 3.875101 -63.793909 -39.364502 15.220799 60.355145 -58.148461 -31.089227 0.000000 0.000000 0.000000 -8.880829 20.461534 5.959760 54.899036 40.806937 13.509263 -14.572649 43.860304 -3.973944 0.000000 0.000000 0.000000 
-0.155142 0.923389 -0.287630 -1.390400 8.490884 0.222635 1.614819 -0.096100 -0.714055 0.672441 -0.682693 11.516150 7.640323 13.767185 -5.708969 0.000000 0.000000 0.000000 0.350329 1.195205 -12.287298 2.840298 -0.350863 10.830239 -12.430450 -27.939571 8.101953 0.000000 0.000000 0.000000 -1.844898 -0.187451 6.803236 1.371409 -0.651172 -0.162276 2.967290 -5.753356 12.899702 2.376195 -0.082519 -22.812439 0.000000 0.000000 0.000000 5.986523 -12.351803 3.843003 -63.106102 -38.125763 14.233002 58.821228 -58.332459 -30.087944 0.000000 0.000000 0.000000 -8.588692 20.321955 5.964309 54.537780 40.654243 13.180342 -14.073890 44.517617 -3.879932 0.000000 0.000000 0.000000 
-0.165470 0.926838 -0.273460 -1.438336 9.085603 -0.123173 2.293877 -0.253695 -2.816566 0.168594 -0.961539 16.918104 7.809503 14.365094 -4.764408 0.000000 0.000000 0.000000 1.608057 1.110516 -10.189684 2.607315 -0.301232 8.971513 -12.969056 -28.852511 8.723815 0.000000 0.000000 0.000000 -1.567504 -0.198851 6.541047 1.797036 -0.831013 -0.486596 2.931084 -6.184114 12.903614 2.029417 0.088100 -22.734900 0.000000 0.000000 0.000000 5.370382 -12.299995 3.862780 -61.456220 -38.281568 13.792595 56.982830 -57.208725 -28.296082 0.000000 0.000000 0.000000 -7.886734 20.634358 6.127600 53.893976 40.913534 13.071655 -14.330431 45.140613 -4.059682 0.000000 0.000000 0.000000 
-0.174493 0.930153 -0.260063 -1.082059 9.325974 -0.175197 2.635003 -0.462276 -5.795417 -0.865350 -1.095643 22.274215 7.835581 14.773464 -3.678495 0.000000 0.000000 0.000000 2.272571 0.940799 -8.121352 2.316912 -0.242193 7.205600 -12.479381 -28.233970 7.833086 0.000000 0.000000 0.000000 -1.786144 -0.187149 6.547326 2.013031 -0.924794 -0.609635 3.174104 -6.265994 12.966762 1.841623 0.205902 -22.906174 0.000000 0.000000 0.000000 5.350427 -12.725867 3.986848 -59.186187 -39.140401 13.578146 56.814976 -54.232604 -26.555580 0.000000 0.000000 0.000000 -7.609966 20.812371 6.205086 54.561888 41.700282 13.706846 -18.532616 45.803434 -5.820834 0.000000 0.000000 0.000000 
